<mxfile host="app.diagrams.net" modified="2024-06-28T09:56:00.090Z" agent="Mozilla/5.0 (Windows NT 10.0; Win64; x64) AppleWebKit/537.36 (KHTML, like Gecko) Chrome/126.0.0.0 Safari/537.36" etag="GrfKOdwBQBsWhbzBUivI" version="24.6.4" type="github">
  <diagram name="第 1 页" id="oBcTDAW4pHkjtFFDSPgj">
    <mxGraphModel dx="1050" dy="557" grid="1" gridSize="10" guides="1" tooltips="1" connect="1" arrows="1" fold="1" page="1" pageScale="1" pageWidth="827" pageHeight="1169" math="0" shadow="0">
      <root>
        <mxCell id="0" />
        <mxCell id="1" parent="0" />
        <mxCell id="rCB-V95ukldK7txEn3Un-5" style="edgeStyle=orthogonalEdgeStyle;rounded=0;orthogonalLoop=1;jettySize=auto;html=1;entryX=0.5;entryY=0;entryDx=0;entryDy=0;" edge="1" parent="1" source="lkDawI4MRN-JRugf49g6-1" target="lkDawI4MRN-JRugf49g6-2">
          <mxGeometry relative="1" as="geometry" />
        </mxCell>
        <mxCell id="lkDawI4MRN-JRugf49g6-1" value="开始" style="rounded=1;whiteSpace=wrap;html=1;" parent="1" vertex="1">
          <mxGeometry x="200" y="110" width="70" height="30" as="geometry" />
        </mxCell>
        <mxCell id="rCB-V95ukldK7txEn3Un-6" style="edgeStyle=orthogonalEdgeStyle;rounded=0;orthogonalLoop=1;jettySize=auto;html=1;entryX=0.5;entryY=0;entryDx=0;entryDy=0;" edge="1" parent="1" source="lkDawI4MRN-JRugf49g6-2" target="lkDawI4MRN-JRugf49g6-4">
          <mxGeometry relative="1" as="geometry" />
        </mxCell>
        <mxCell id="lkDawI4MRN-JRugf49g6-2" value="文档结构化处理" style="rounded=0;whiteSpace=wrap;html=1;" parent="1" vertex="1">
          <mxGeometry x="182.5" y="160" width="105" height="40" as="geometry" />
        </mxCell>
        <mxCell id="rCB-V95ukldK7txEn3Un-7" style="edgeStyle=orthogonalEdgeStyle;rounded=0;orthogonalLoop=1;jettySize=auto;html=1;entryX=0.5;entryY=0;entryDx=0;entryDy=0;" edge="1" parent="1" source="lkDawI4MRN-JRugf49g6-4" target="rCB-V95ukldK7txEn3Un-1">
          <mxGeometry relative="1" as="geometry" />
        </mxCell>
        <mxCell id="lkDawI4MRN-JRugf49g6-4" value="对结构化文档" style="rounded=0;whiteSpace=wrap;html=1;" parent="1" vertex="1">
          <mxGeometry x="182.5" y="220" width="105" height="40" as="geometry" />
        </mxCell>
        <mxCell id="rCB-V95ukldK7txEn3Un-8" style="edgeStyle=orthogonalEdgeStyle;rounded=0;orthogonalLoop=1;jettySize=auto;html=1;entryX=0.5;entryY=0;entryDx=0;entryDy=0;" edge="1" parent="1" source="rCB-V95ukldK7txEn3Un-1" target="rCB-V95ukldK7txEn3Un-2">
          <mxGeometry relative="1" as="geometry" />
        </mxCell>
        <mxCell id="rCB-V95ukldK7txEn3Un-1" value="细粒度文档差异对比" style="rounded=0;whiteSpace=wrap;html=1;" vertex="1" parent="1">
          <mxGeometry x="182.5" y="280" width="105" height="40" as="geometry" />
        </mxCell>
        <mxCell id="rCB-V95ukldK7txEn3Un-9" style="edgeStyle=orthogonalEdgeStyle;rounded=0;orthogonalLoop=1;jettySize=auto;html=1;entryX=0.5;entryY=0;entryDx=0;entryDy=0;" edge="1" parent="1" source="rCB-V95ukldK7txEn3Un-2" target="rCB-V95ukldK7txEn3Un-3">
          <mxGeometry relative="1" as="geometry" />
        </mxCell>
        <mxCell id="rCB-V95ukldK7txEn3Un-2" value="汇总差异内容" style="rounded=0;whiteSpace=wrap;html=1;" vertex="1" parent="1">
          <mxGeometry x="182.5" y="340" width="105" height="40" as="geometry" />
        </mxCell>
        <mxCell id="rCB-V95ukldK7txEn3Un-10" style="edgeStyle=orthogonalEdgeStyle;rounded=0;orthogonalLoop=1;jettySize=auto;html=1;entryX=0.5;entryY=0;entryDx=0;entryDy=0;" edge="1" parent="1" source="rCB-V95ukldK7txEn3Un-3" target="rCB-V95ukldK7txEn3Un-4">
          <mxGeometry relative="1" as="geometry" />
        </mxCell>
        <mxCell id="rCB-V95ukldK7txEn3Un-11" value="" style="edgeStyle=orthogonalEdgeStyle;rounded=0;orthogonalLoop=1;jettySize=auto;html=1;" edge="1" parent="1" source="rCB-V95ukldK7txEn3Un-3" target="rCB-V95ukldK7txEn3Un-4">
          <mxGeometry relative="1" as="geometry" />
        </mxCell>
        <mxCell id="rCB-V95ukldK7txEn3Un-3" value="文档差异展示" style="rounded=0;whiteSpace=wrap;html=1;" vertex="1" parent="1">
          <mxGeometry x="182.5" y="400" width="105" height="40" as="geometry" />
        </mxCell>
        <mxCell id="rCB-V95ukldK7txEn3Un-4" value="结束" style="rounded=1;whiteSpace=wrap;html=1;" vertex="1" parent="1">
          <mxGeometry x="200" y="460" width="70" height="30" as="geometry" />
        </mxCell>
        <mxCell id="rCB-V95ukldK7txEn3Un-15" style="edgeStyle=orthogonalEdgeStyle;rounded=0;orthogonalLoop=1;jettySize=auto;html=1;entryX=0.5;entryY=0;entryDx=0;entryDy=0;" edge="1" parent="1">
          <mxGeometry relative="1" as="geometry">
            <mxPoint x="463.5" y="310" as="sourcePoint" />
            <mxPoint x="463.5" y="360" as="targetPoint" />
          </mxGeometry>
        </mxCell>
        <mxCell id="rCB-V95ukldK7txEn3Un-18" style="edgeStyle=orthogonalEdgeStyle;rounded=0;orthogonalLoop=1;jettySize=auto;html=1;entryX=0;entryY=0.5;entryDx=0;entryDy=0;" edge="1" parent="1">
          <mxGeometry relative="1" as="geometry">
            <mxPoint x="535" y="281" as="sourcePoint" />
            <mxPoint x="630" y="281" as="targetPoint" />
          </mxGeometry>
        </mxCell>
        <mxCell id="rCB-V95ukldK7txEn3Un-12" value="文档差异对模块" style="rounded=0;whiteSpace=wrap;html=1;" vertex="1" parent="1">
          <mxGeometry x="430" y="270" width="105" height="40" as="geometry" />
        </mxCell>
        <mxCell id="rCB-V95ukldK7txEn3Un-16" style="edgeStyle=orthogonalEdgeStyle;rounded=0;orthogonalLoop=1;jettySize=auto;html=1;entryX=0.5;entryY=1;entryDx=0;entryDy=0;" edge="1" parent="1">
          <mxGeometry relative="1" as="geometry">
            <mxPoint x="497.5" y="360" as="sourcePoint" />
            <mxPoint x="497.5" y="310" as="targetPoint" />
          </mxGeometry>
        </mxCell>
        <mxCell id="rCB-V95ukldK7txEn3Un-13" value="文档存储模块" style="rounded=0;whiteSpace=wrap;html=1;" vertex="1" parent="1">
          <mxGeometry x="430" y="360" width="105" height="40" as="geometry" />
        </mxCell>
        <mxCell id="rCB-V95ukldK7txEn3Un-20" value="" style="edgeStyle=orthogonalEdgeStyle;rounded=0;orthogonalLoop=1;jettySize=auto;html=1;" edge="1" parent="1">
          <mxGeometry relative="1" as="geometry">
            <mxPoint x="630" y="299" as="sourcePoint" />
            <mxPoint x="535" y="299" as="targetPoint" />
          </mxGeometry>
        </mxCell>
        <mxCell id="rCB-V95ukldK7txEn3Un-14" value="文档展示模块" style="rounded=0;whiteSpace=wrap;html=1;" vertex="1" parent="1">
          <mxGeometry x="630" y="270" width="105" height="40" as="geometry" />
        </mxCell>
        <mxCell id="rCB-V95ukldK7txEn3Un-17" value="Actor" style="shape=umlActor;verticalLabelPosition=bottom;verticalAlign=top;html=1;outlineConnect=0;fontColor=#FFFFFF;" vertex="1" parent="1">
          <mxGeometry x="660" y="150" width="30" height="60" as="geometry" />
        </mxCell>
        <mxCell id="rCB-V95ukldK7txEn3Un-19" style="edgeStyle=orthogonalEdgeStyle;rounded=0;orthogonalLoop=1;jettySize=auto;html=1;entryX=0.427;entryY=0.035;entryDx=0;entryDy=0;entryPerimeter=0;" edge="1" parent="1" target="rCB-V95ukldK7txEn3Un-14">
          <mxGeometry relative="1" as="geometry">
            <mxPoint x="675" y="210" as="sourcePoint" />
          </mxGeometry>
        </mxCell>
      </root>
    </mxGraphModel>
  </diagram>
</mxfile>
